<?xml version="1.0" encoding="utf-8"?>
<!-- Generator: Adobe Illustrator 17.0.0, SVG Export Plug-In . SVG Version: 6.00 Build 0)  -->
<!DOCTYPE svg PUBLIC "-//W3C//DTD SVG 1.1//EN" "http://www.w3.org/Graphics/SVG/1.1/DTD/svg11.dtd">
<svg version="1.1" id="Layer_1" xmlns="http://www.w3.org/2000/svg" xmlns:xlink="http://www.w3.org/1999/xlink" x="0px" y="0px"
	 width="16px" height="16px" viewBox="0 0 16 16" enable-background="new 0 0 16 16" xml:space="preserve">
<g>
	<g>
		<path fill="#FFFFFF" d="M2.61,10.878c-0.196,0.08-0.38,0.166-0.554,0.259v1.794h1.661v-0.483H2.61V10.878z"/>
		<polygon fill="#FFFFFF" points="10.319,12.096 9.558,10.682 9.014,10.682 9.014,12.93 9.551,12.93 9.551,11.725 10.189,12.922 
			10.311,12.922 10.449,12.917 11.057,11.744 11.071,12.93 11.608,12.93 11.608,10.682 11.068,10.682 		"/>
		<path fill="#FFFFFF" d="M8.457,11.42c-0.02-0.553-0.311-0.752-0.949-0.747c-0.645,0.006-1.013,0.014-1.013,0.014l-0.006,2.25
			h0.554v-0.772l0.144-0.005l0.695,0.777h0.668L7.844,12.14C7.844,12.14,8.477,11.978,8.457,11.42z M7.042,11.163h0.523
			c0,0,0.327,0.008,0.326,0.268c-0.002,0.261-0.268,0.261-0.268,0.261l-0.581,0.011V11.163z"/>
		<path fill="#FFFFFF" d="M13.317,11.601c0,0-0.508-0.063-0.584-0.138c-0.075-0.075-0.093-0.232-0.006-0.313
			c0.087-0.081,0.301-0.116,0.428-0.041c0.127,0.075,0.208,0.286,0.208,0.286l0.544-0.111c0,0-0.025-0.158-0.151-0.319
			c-0.281-0.119-0.582-0.226-0.91-0.323c-0.011-0.003-0.023-0.006-0.034-0.01c-0.007,0.001-0.014,0.001-0.021,0.001
			c0,0-0.804,0.104-0.7,0.822c0,0-0.035,0.509,0.891,0.614c0.614,0.033,0.422,0.404,0.289,0.451
			c-0.538,0.11-0.676-0.331-0.676-0.331l-0.57,0.111c0.096,0.567,0.621,0.706,1.119,0.677c0.498-0.029,0.903-0.318,0.787-0.839
			C13.816,11.62,13.317,11.601,13.317,11.601z"/>
		<path fill="#FFFFFF" d="M4.117,11.141h0.659v1.812h0.525v-1.812h0.823v-0.483H4.117C4.11,10.658,4.117,11.141,4.117,11.141z"/>
	</g>
	<path fill="#FFFFFF" d="M1.488,9.071c0.034,0.016,0.074,0.013,0.105-0.009C2.132,8.69,2.814,8.415,3.62,8.244
		c0.221-0.047,0.572-0.075,0.94-0.075c0.485,0,0.913,0.045,1.226,0.125c-0.67,0.098-1.804,0.291-2.252,0.387
		c-0.679,0.147-1.293,0.432-1.99,0.926C1.512,9.63,1.495,9.667,1.499,9.706c0.029,0.259,0.038,0.312,0.039,0.318
		c0.007,0.039,0.036,0.07,0.073,0.081c0.038,0.012,0.078,0.001,0.106-0.026c0.648-0.647,2.094-0.99,4.182-0.99
		c0.479,0,0.988,0.018,1.515,0.054c0.002,0,0.005,0,0.007,0c0,0,0.001,0,0.001,0c0.059,0,0.106-0.048,0.106-0.106
		c0-0.008-0.001-0.016-0.003-0.024C7.524,8.98,7.522,8.948,7.522,8.917c0-0.564,0.459-1.024,1.024-1.024
		c0.029,0,0.058,0.001,0.087,0.004c-0.304,0.16-0.51,0.479-0.51,0.843c0,0.526,0.428,0.953,0.953,0.953
		c0.257,0,0.501-0.104,0.68-0.287c1.811,0.283,2.886,0.639,2.967,0.789c0.148,0.274,0.327,0.332,0.452,0.332
		c0.211,0,0.391-0.157,0.48-0.251l0.834,0.404c0.015,0.007,0.03,0.011,0.046,0.011c0.02,0,0.039-0.005,0.056-0.016
		c0.031-0.019,0.05-0.053,0.05-0.09V8.857c0-0.028-0.011-0.055-0.031-0.075c-0.014-0.014-1.422-1.417-3.196-2.819
		C9.019,4.071,7.131,3.082,5.802,3.021C5.733,3.018,5.663,3.017,5.595,3.017c-1.678,0-2.738,0.961-3.221,1.534
		C2.339,4.592,2.341,4.654,2.38,4.693C2.418,4.732,2.48,4.736,2.523,4.701c0.816-0.67,2.695-0.815,3.168-0.841v2.029
		C5.417,5.894,4.647,5.915,3.854,5.982c-2.032,0.171-2.234,0.473-2.3,0.572c-0.208,0.312-0.25,1.107-0.127,2.431
		C1.431,9.022,1.454,9.055,1.488,9.071z M6.794,5.978l0.023-1.943L8.123,4.6L8.099,6.35L6.794,5.978z M8.865,6.592l0.15-1.562
		l1.051,0.679L9.98,7.081L8.865,6.592z M11.906,7.931L12,7.156l0.584,0.448l-0.047,0.676L11.906,7.931z M10.584,7.317l0.12-1.157
		l0.767,0.59l-0.059,0.94L10.584,7.317z M13.79,9.01l0.017-0.344l0.073,0.059l-0.016,0.331L13.79,9.01z M13.026,8.539l0.051-0.483
		l0.292,0.222L13.342,8.74L13.026,8.539z"/>
</g>
</svg>
